<svg xmlns="http://www.w3.org/2000/svg" width="40" height="40" fill="none" viewBox="0 0 40 40">
    <rect width="40" height="40" fill="#4F39D9" opacity=".3" rx="4"/>
    <path fill="#9B8AFF" d="M25.624 11H13.812l.048.023c-1.286.112-2.297 1.178-2.297 2.492v4.235h4.5v10.687c0 .186.093.36.247.465.154.105.35.125.524.057l2.603-1.042 2.603 1.042c.134.055.284.055.418 0l2.604-1.042 2.603 1.042c.068.027.14.04.21.04.11 0 .22-.032.314-.097.155-.104.248-.279.248-.465V13.812c0-1.55-1.261-2.812-2.813-2.812zm-9.562 3.375v2.25h-3.375v-3.11c0-.766.625-1.39 1.39-1.39h.595c.766 0 1.39.624 1.39 1.39v.86zm9.562 10.124h-4.5c-.31 0-.562-.252-.562-.562 0-.31.252-.563.563-.563h4.5c.31 0 .562.252.562.563 0 .31-.252.562-.563.562zm0-2.25h-4.5c-.31 0-.562-.252-.562-.562 0-.31.252-.563.563-.563h4.5c.31 0 .562.253.562.563 0 .31-.252.563-.563.563zm0-2.25h-6.75c-.31 0-.562-.251-.562-.562 0-.31.252-.562.563-.562h6.75c.31 0 .562.252.562.562 0 .31-.252.563-.563.563zm0-4.5h-6.75c-.31 0-.562-.251-.562-.562 0-.31.252-.562.563-.562h6.75c.31 0 .562.252.562.562 0 .31-.252.563-.563.563z"/>
</svg>
