<svg xmlns="http://www.w3.org/2000/svg" width="40" height="40" fill="none" viewBox="0 0 40 40">
    <rect width="40" height="40" fill="#E38A49" opacity=".3" rx="4"/>
    <g clip-path="url(#prefix__clip0)">
        <path fill="#F58332" d="M23.809 17.252l-.36 3.817c.283.324.432.692.432 1.082 0 .484-.229.933-.656 1.307L22.705 29h1.858l1.855-11.748h-2.61zM17.251 17.252l.292 3.102c.55-.26 1.217-.425 1.93-.48v-2.622H17.25zM17.895 24.096l.46 4.904h1.118V24.43c-.567-.044-1.105-.157-1.578-.333zM25.561 15.334c-.155-.164-.335-.295-.533-.389.044-.188.057-.383.039-.58-.08-.838-.745-1.513-1.582-1.604-.165-.018-.327-.013-.485.013 0-.02 0-.041-.002-.062-.038-.91-.78-1.661-1.69-1.71-.498-.026-.964.152-1.308.47-.345-.318-.81-.496-1.309-.47-.921.05-1.664.81-1.69 1.733l-.001.038c-.096-.015-.193-.023-.291-.023-.475.001-.94.201-1.277.548-.336.348-.52.82-.507 1.294.004.12.02.239.046.353-.187.09-.36.212-.509.364-.243.248-.406.555-.475.889h12.025c-.066-.322-.22-.62-.45-.864zM22.125 21.367c-.551-.291-1.326-.458-2.125-.458-.8 0-1.575.167-2.125.458-.44.231-.701.525-.701.785s.262.553.7.785c.552.29 1.326.457 2.126.457.8 0 1.574-.167 2.125-.457.439-.232.7-.526.7-.785 0-.26-.261-.554-.7-.785zM16.775 23.459c-.427-.374-.655-.823-.655-1.307 0-.39.149-.758.43-1.082l-.358-3.818h-2.61L15.437 29h1.86l-.522-5.541zM20.527 24.429V29h1.117l.462-4.904c-.474.176-1.012.29-1.579.333zM20.527 17.252v2.623c.713.054 1.38.22 1.93.48l.292-3.103h-2.222z"/>
    </g>
    <defs>
        <clipPath id="prefix__clip0">
            <path fill="#fff" d="M11 11H29V29H11z"/>
        </clipPath>
    </defs>
</svg>
