<svg xmlns="http://www.w3.org/2000/svg" width="40" height="40" fill="none" viewBox="0 0 40 40">
    <rect width="40" height="40" fill="#499722" opacity=".3" rx="4"/>
    <path fill="#63CD2D" d="M29.923 26.275l-7.397-7.045L13.885 11h-.676l-.138.334c-.364.88-.52 1.782-.45 2.605.08.939.455 1.751 1.084 2.35l6.746 6.425.89-.847 6.236 6.642c.62.59 1.689.625 2.346 0 .647-.616.647-1.619 0-2.234zM17.324 21.226l-5.283 5.032c-.647.616-.647 1.618 0 2.234.614.585 1.677.637 2.345 0l5.284-5.032-2.346-2.234zM29.612 13.991l-2.997 2.855-.782-.745 2.998-2.854-.782-.745-2.997 2.854-.782-.744 2.997-2.855-.782-.744-3.91 3.723c-.478.455-.763 1.06-.803 1.703-.01.163-.05.323-.114.475l2.54 2.419c.16-.061.328-.098.499-.108.675-.039 1.31-.31 1.788-.766l3.91-3.723-.783-.745z"/>
</svg>
