<svg xmlns="http://www.w3.org/2000/svg" width="40" height="40" fill="none" viewBox="0 0 40 40">
    <rect width="40" height="40" fill="#CC3B3B" opacity=".3" rx="4"/>
    <path fill="#FF3636" d="M24.219 12.16c-2.133 0-3.502 1.477-4.219 2.807-.717-1.33-2.086-2.807-4.219-2.807-2.706 0-4.781 2.195-4.781 5.107 0 .76.152 1.461.432 2.135h4.023l.91-1.818c.178-.357.763-.357.943 0l1.637 3.276.583-1.166c.18-.357.765-.357.944 0l.583 1.166 1.637-3.276c.18-.357.765-.357.944 0l.909 1.818h4.023c.28-.674.432-1.375.432-2.135 0-2.912-2.076-5.107-4.781-5.107z"/>
    <path fill="#FF3636" d="M24.218 20.457c-.2 0-.382-.113-.471-.292L23.164 19l-1.638 3.275c-.09.178-.272.291-.472.291-.2 0-.382-.113-.471-.291L20 21.109l-.583 1.166c-.18.357-.765.357-.944 0L16.836 19l-.583 1.165c-.09.18-.272.292-.472.292h-3.796c1.086 1.708 3.04 3.33 5.486 5.393.686.58 1.416 1.196 2.183 1.861.1.086.223.129.346.129.123 0 .246-.043.345-.129.767-.665 1.497-1.281 2.184-1.86 2.445-2.064 4.4-3.686 5.485-5.394h-3.796z"/>
</svg>
