<svg xmlns="http://www.w3.org/2000/svg" width="40" height="40" fill="none" viewBox="0 0 40 40">
    <rect width="40" height="40" fill="#CC3BAC" opacity=".3" rx="4"/>
    <g clip-path="url(#prefix__clip0)">
        <path fill="#FA72DD" d="M27.53 19.274c-.46 0-.857-.303-.989-.755-.106-.367-.259-.726-.454-1.071V12.93c0-.313-.253-.567-.566-.567-1.516 0-2.86.624-3.704 1.898-.935-.289-1.925-.435-2.95-.435-5.375 0-9.042 3.961-7.52 7.778.066.182 1.292 3.558 1.735 5.585.056.26.287.445.553.445h3.695c.313 0 .566-.253.566-.566v-.273c0-.502.4-.943.971-.942.575-.001.971.442.971.942v.273c0 .313.254.567.567.567H24.1c.216 0 .413-.123.508-.317l1.152-2.346c.044-.095.26-.355.587-.551.19-.114.556-.288.888-.179.29.095.605-.057.71-.344l.965-2.653c.349-.957-.362-1.972-1.38-1.972zm-7.213-2.816c-.039.31-.322.53-.632.492-1.079-.135-2.176.003-3.26.41-.293.11-.62-.039-.729-.332-.11-.293.039-.62.331-.729 1.258-.471 2.536-.63 3.798-.473.31.039.53.322.492.632zm4.14 3.602c-.26.26-.681.26-.941 0-.26-.26-.26-.681 0-.941.26-.26.682-.26.942 0 .26.26.26.681 0 .941z"/>
    </g>
    <defs>
        <clipPath id="prefix__clip0">
            <path fill="#fff" d="M11 11H29V29H11z"/>
        </clipPath>
    </defs>
</svg>
