<svg xmlns="http://www.w3.org/2000/svg" width="40" height="40" fill="none" viewBox="0 0 40 40">
    <rect width="40" height="40" fill="#00A47D" opacity=".3" rx="4"/>
    <g clip-path="url(#prefix__clip0)">
        <path fill="#00DBC1" d="M25.019 28.707c1.2 0 2.172-.972 2.172-2.172 0-1.2-.973-2.172-2.172-2.172-1.2 0-2.172.973-2.172 2.172 0 1.2.972 2.172 2.172 2.172zM28.494 14.768c-.06-.02-.119-.02-.178-.02H15.581l-.573-2.902c-.06-.316-.355-.553-.671-.553H11v1.382h2.764l2.054 10.326c.059.316.355.553.671.553h9.872c.316 0 .593-.217.672-.513l1.935-7.424c.118-.375-.1-.75-.474-.849zM17.338 28.707c1.2 0 2.172-.972 2.172-2.172 0-1.2-.973-2.172-2.172-2.172-1.2 0-2.172.973-2.172 2.172 0 1.2.972 2.172 2.172 2.172z"/>
    </g>
    <defs>
        <clipPath id="prefix__clip0">
            <path fill="#fff" d="M11 11H29V29H11z"/>
        </clipPath>
    </defs>
</svg>
