<svg xmlns="http://www.w3.org/2000/svg" width="40" height="40" fill="none" viewBox="0 0 40 40">
    <rect width="40" height="40" fill="#CC3B3B" opacity=".3" rx="4"/>
    <path fill="#CC3B3B" d="M28.562 13.395H14.79v-1.796c0-.242-.146-.462-.37-.554-.224-.092-.48-.04-.652.13l-3.593 3.592c-.233.234-.233.613 0 .847l3.593 3.592c.172.172.428.223.652.13.224-.091.37-.31.37-.552v-1.797h13.772c.33 0 .598-.268.598-.598v-2.396c0-.331-.268-.598-.598-.598zM28.985 24.348l-3.592-3.593c-.172-.172-.429-.223-.653-.13-.224.093-.37.311-.37.553v1.797H10.6c-.33 0-.599.268-.599.598v2.395c0 .33.268.6.599.6H24.37v1.795c0 .242.146.462.37.554.224.093.482.042.653-.13l3.592-3.592c.234-.234.234-.613 0-.847z"/>
</svg>
