<svg xmlns="http://www.w3.org/2000/svg" width="40" height="40" fill="none" viewBox="0 0 40 40">
    <rect width="40" height="40" fill="#F0E821" opacity=".3" rx="4"/>
    <g clip-path="url(#prefix__clip0)">
        <path fill="#F0E821" d="M27.643 17.937l-1.262-4.208c-.288-.96-1.154-1.604-2.156-1.604h-8.45c-1.002 0-1.868.644-2.156 1.604l-1.262 4.208C11.56 18.283 11 19.077 11 20v4.5c0 .621.504 1.125 1.125 1.125v1.125c0 .621.504 1.125 1.125 1.125h1.125c.621 0 1.125-.504 1.125-1.125v-1.125h9v1.125c0 .621.504 1.125 1.125 1.125h1.125c.621 0 1.125-.504 1.125-1.125v-1.125c.621 0 1.125-.504 1.125-1.125V20c0-.923-.56-1.717-1.357-2.063zm-11.868-3.562h8.45l1.013 3.375H14.762l1.013-3.375zm-.275 8.438c-.621 0-1.125-.504-1.125-1.125 0-.622.504-1.125 1.125-1.125s1.125.503 1.125 1.125c0 .62-.504 1.125-1.125 1.125zm9 0c-.621 0-1.125-.504-1.125-1.125 0-.622.504-1.125 1.125-1.125s1.125.503 1.125 1.125c0 .62-.504 1.125-1.125 1.125z"/>
    </g>
    <defs>
        <clipPath id="prefix__clip0">
            <path fill="#fff" d="M11 11H29V29H11z"/>
        </clipPath>
    </defs>
</svg>
